# xmcd
#
# Track frame offsets:
#	150
#	19960
#	30278
#	50153
#	68872
#	83131
#	99955
#	110975
#	132002
#	141847
#	158713
#	183989
#	204622
#	217411
#	225979
#	239718
#	252101
#	263692
#	280899
#	295443
#
# Disc length: 4123 seconds
#
# Revision: 0
# Processed by: cddbd v1.5.2PL0 Copyright (c) Steve Scherf et al.
# Submitted via: EasyCDDAExtractor 16.0.1.1
#
DISCID=2d101914
DTITLE=Josh White - Josh White At Town Hall
DYEAR=1962
DGENRE=Blues
TTITLE0=I'm Gonna Move To The Outskirts Of Town
TTITLE1=I Know Where I'm Goin'
TTITLE2=Foggy Dew
TTITLE3=House of The Rising Sun
TTITLE4=Hard Time Blues
TTITLE5=The Lass With The Most Delicate Air
TTITLE6=Half As Much
TTITLE7=Pastures Of Plenty
TTITLE8=What Ya Gonna Do
TTITLE9=Green Grass Grows All Around
TTITLE10=Careless Love
TTITLE11=Dink's Blues
TTITLE12=Oh Lula
TTITLE13=Tap 'em Up Solid
TTITLE14=Jim Crow Train
TTITLE15=Strange Fruit
TTITLE16=Bad Housing Blues
TTITLE17=You Don't Know My Mind
TTITLE18=How About You
TTITLE19=Southern Exposure
EXTD=
EXTT0=
EXTT1=
EXTT2=
EXTT3=
EXTT4=
EXTT5=
EXTT6=
EXTT7=
EXTT8=
EXTT9=
EXTT10=
EXTT11=
EXTT12=
EXTT13=
EXTT14=
EXTT15=
EXTT16=
EXTT17=
EXTT18=
EXTT19=
PLAYORDER=
